<svg xmlns="http://www.w3.org/2000/svg" width="24" height="24" viewBox="0 0 24 24" fill="none">
    <path d="M5.636 18.364L7.0503 16.9497C8.317 18.2165 10.067 19 12 19C15.866 19 19 15.866 19 12C19 8.134 15.866 5 12 5C8.134 5 5 8.134 5 12L3 12C3 7.0294 7.0294 3 12 3C16.9706 3 21 7.0294 21 12C21 16.9706 16.9706 21 12 21C9.5147 21 7.2647 19.9926 5.636 18.364Z" fill="#627784"/>
    <path d="M18.364 5.63604L16.9497 7.05025C15.683 5.7835 13.933 5 12 5C8.13401 5 5 8.13401 5 12C5 15.866 8.13401 19 12 19C15.866 19 19 15.866 19 12H21C21 16.9706 16.9706 21 12 21C7.02944 21 3 16.9706 3 12C3 7.02944 7.02944 3 12 3C14.4853 3 16.7353 4.00736 18.364 5.63604Z" fill="url(#paint0_linear_3494_781)"/>
    <defs>
        <linearGradient id="paint0_linear_3494_781" x1="3" y1="12.2432" x2="21" y2="12.2432" gradientUnits="userSpaceOnUse">
            <stop stop-color="#1BBEF5"/>
            <stop offset="1" stop-color="#1BECA6"/>
        </linearGradient>
    </defs>
</svg>